<?xml version="1.0" ?><svg id="Layer_1" style="enable-background:new 0 0 64 64;" version="1.1" viewBox="0 0 64 64" xml:space="preserve" xmlns="http://www.w3.org/2000/svg" xmlns:xlink="http://www.w3.org/1999/xlink"><style type="text/css">
	.st0{fill:#62BEE7;}
	.st1{fill:#474E5E;}
	.st2{fill:#F3EEE4;}
	.st3{fill:#FFFFFF;}
	.st4{fill:#E8DCCA;}
	.st5{opacity:0.1;fill:#231F20;}
	.st6{fill:#506268;}
	.st7{fill:#EB5151;}
	.st8{fill:#C64444;}
	.st9{fill:#9CCB5B;}
	.st10{fill:#404A4C;}
	.st11{fill:#676767;}
	.st12{fill:#E0E1E5;}
	.st13{fill:#9D9EA0;}
	.st14{fill:#B3B4B7;}
	.st15{opacity:0.1;}
	.st16{fill:#231F20;}
	.st17{fill:#FACC20;}
	.st18{fill:#FDEF34;}
	.st19{fill:#F7A90B;}
	.st20{fill:#20B8EA;}
	.st21{fill:#00A8EA;}
	.st22{fill:#33D3F4;}
	.st23{opacity:0.25;fill:#FFFFFF;}
	.st24{fill:#CACBCE;}
	.st25{fill:#2E3545;}
	.st26{fill:#8DAF4A;}
	.st27{fill:#F9C2AF;}
	.st28{fill:#AFDDF4;}
	.st29{fill:#677177;}
	.st30{fill:#FFEDB3;}
	.st31{fill:#695652;}
	.st32{fill:#30A7BF;}
	.st33{fill:#4D5556;}
	.st34{opacity:0.35;}
	.st35{fill:#FFCB04;}
	.st36{fill:#99E9FA;}
	.st37{opacity:0.2;}
	.st38{opacity:3.000000e-02;}
	.st39{fill:#9ECA5B;}
	.st40{fill:#98BA56;}
	.st41{fill:#40EEFF;}
	.st42{fill:#FF6A52;}
	.st43{opacity:0.1;fill:#FFFFFF;}
	.st44{opacity:0.4;}
	.st45{fill:#57606D;}
	.st46{fill:#BACA5B;}
	.st47{opacity:0.25;}
	.st48{opacity:5.000000e-02;fill:#231F20;}
	.st49{opacity:0.2;fill:#FFFFFF;}
	.st50{opacity:0.3;}
	.st51{fill:#FFD82F;}
	.st52{fill:#F4C121;}
	.st53{fill:#EF9D0A;}
	.st54{fill:#F9E532;}
	.st55{fill:#F4C01E;}
	.st56{fill:#FFE14D;}
	.st57{fill:#B7C156;}
	.st58{fill:#DBA92C;}
	.st59{fill:#363D4D;}
	.st60{fill:#3F4656;}
	.st61{fill:#463E33;}
	.st62{fill:none;}
	.st63{opacity:4.000000e-02;}
	.st64{fill:#4DB6AC;}
	.st65{fill:#CADE49;}
	.st66{fill:#9FD343;}
	.st67{fill:#AAD643;}
	.st68{fill:#82C736;}
	.st69{opacity:0.3;fill:#FFFFFF;}
	.st70{fill:#FFD640;}
	.st71{opacity:0.5;}
	.st72{opacity:0.6;}
</style><g><circle class="st0" cx="32" cy="32" r="32"/><g><g><g><rect class="st7" height="4.5" width="44.7" x="9.6" y="11.6"/></g><g><rect class="st8" height="2.2" width="44.7" x="9.6" y="13.9"/></g></g><g><rect class="st8" height="3" width="44.7" x="9.6" y="45.9"/></g><g><rect class="st3" height="29.8" width="38.8" x="12.6" y="16.1"/></g><g><polygon class="st7" points="24.4,54.1 29.6,48.9 24,48.9 18.8,54.1    "/></g><g><polygon class="st7" points="45.2,54.1 40,48.9 34.4,48.9 39.6,54.1    "/></g><g><g><rect class="st64" height="15.9" transform="matrix(-1 -5.099489e-11 5.099489e-11 -1 61.2298 68.7577)" width="3.4" x="28.9" y="26.4"/></g><g><rect class="st21" height="7.9" transform="matrix(-1 -5.311985e-11 5.311985e-11 -1 51.9569 76.7371)" width="3.4" x="24.3" y="34.4"/></g><g><rect class="st17" height="11.9" transform="matrix(-1 -5.311985e-11 5.311985e-11 -1 42.684 72.7474)" width="3.4" x="19.6" y="30.4"/></g><g><rect class="st31" height="4.9" transform="matrix(-1 -5.311985e-11 5.311985e-11 -1 33.4111 79.7796)" width="3.4" x="15" y="37.4"/></g><polygon class="st5" points="32.3,26.5 32.3,42.3 30.5,42.3    "/><polygon class="st5" points="27.7,34.4 27.7,42.3 25.9,42.3    "/><polygon class="st5" points="23.1,30.4 23.1,42.3 21.3,42.3    "/><polygon class="st5" points="18.4,37.4 18.4,42.3 16.6,42.3    "/><g><g><rect class="st4" height="1.7" width="15" x="34" y="19.7"/><rect class="st4" height="1.7" width="15" x="34" y="23.2"/><rect class="st4" height="1.7" width="15" x="34" y="26.7"/></g><rect class="st4" height="1.7" width="8.8" x="40.2" y="30.2"/><rect class="st4" height="1.7" width="8.8" x="40.2" y="33.8"/></g></g></g></g></svg>