<?xml version="1.0" ?><!DOCTYPE svg  PUBLIC '-//W3C//DTD SVG 1.1//EN'  'http://www.w3.org/Graphics/SVG/1.1/DTD/svg11.dtd'><svg enable-background="new 0 0 256 256" height="256px" id="Layer_1" version="1.1" viewBox="0 0 256 256" width="256px" xml:space="preserve" xmlns="http://www.w3.org/2000/svg" xmlns:xlink="http://www.w3.org/1999/xlink"><g><path d="M243.482,128c0,10.712-1.461,21.09-4.193,30.938c-11.352,40.888-44.615,72.646-86.34,81.824   c-8.039,1.792-16.381,2.72-24.949,2.72c-63.773,0-115.482-51.709-115.482-115.482C12.518,64.226,64.227,12.518,128,12.518   C191.771,12.518,243.482,64.226,243.482,128z" fill="#90CD62"/><path d="M128,12.518C64.227,12.518,12.518,64.226,12.518,128c0,63.773,51.709,115.482,115.482,115.482   c63.771,0,115.482-51.709,115.482-115.482C243.482,64.226,191.771,12.518,128,12.518z M128,229.806   c-56.129,0-101.807-45.675-101.807-101.806S71.871,26.193,128,26.193S229.807,71.869,229.807,128S184.129,229.806,128,229.806z" fill="#5B3CA8"/></g><path d="M229.81,128c0,6.69-0.649,13.24-1.89,19.57c-8.31,42.52-43.18,75.65-86.56,81.36  c-4.37,0.58-8.83,0.88-13.36,0.88c-56.13,0-101.81-45.68-101.81-101.81S71.87,26.19,128,26.19S229.81,71.87,229.81,128z" fill="#90CD62"/><path d="M222.64,194.18c0.88-1.25,1.73-2.51,2.551-3.8C224.37,191.67,223.51,192.93,222.64,194.18z" fill="#90CD62"/><path d="M239.14,159.45c0.5-1.77,0.96-3.57,1.38-5.37c-0.369,1.64-0.779,3.26-1.229,4.86  C239.24,159.11,239.19,159.28,239.14,159.45z" fill="#90CD62"/><path d="M240.52,154.08c0.4-1.73,0.761-3.46,1.08-5.21C241.28,150.62,240.92,152.36,240.52,154.08z" fill="#90CD62"/><path d="M242.55,142.7c0.25-1.92,0.44-3.86,0.59-5.82C243,138.84,242.8,140.78,242.55,142.7z" fill="#90CD62"/><path d="M166.05,237.05c-1.77,0.62-3.569,1.19-5.38,1.73C162.48,238.26,164.28,237.68,166.05,237.05z M160.67,238.78  c-2.54,0.74-5.11,1.41-7.72,1.98C155.56,240.2,158.13,239.54,160.67,238.78z" fill="#5B3CA8"/><path d="M227.92,147.57c-8.31,42.52-43.18,75.65-86.56,81.36l-64.98-66.29l30.86-52.04l3.72,5.08l11.9-1.81  l21.88-49.48L227.92,147.57z" fill="#81B757"/><g><g><g><g><path d="M105.695,109.886H78.451c-1.17,0-2.117,0.948-2.117,2.116v49.728c0,1.168,0.947,2.116,2.117,2.116      h27.244c1.168,0,2.115-0.948,2.115-2.116v-49.728C107.811,110.834,106.863,109.886,105.695,109.886z M86.188,161.598      c-3.254,0-5.885-2.636-5.885-5.885c0-3.251,2.631-5.887,5.885-5.887c3.25,0,5.885,2.636,5.885,5.887      C92.072,158.962,89.438,161.598,86.188,161.598z" fill="#AA2746"/></g></g><g><path d="M179.666,116.279c0-4.334-3.514-7.848-7.848-7.848h-16.045c-0.004,0-0.008,0.001-0.01,0.001     c-3.684,0-7.273,0-8.896,0c-6.355,0,2.338-13.094,3.658-27.112c1.324-14.018-5.617-16.928-7.668-16.928     c-2.316,0-7.539,1.851-7.807,7.935c-0.264,6.084-4.229,22.22-10.313,27.244c-6.084,5.026-13.492,16.4-13.492,16.4v41.969     c7.938,8.641,44.613,5.907,44.613,5.907h5.314c3.395,0,6.148-2.754,6.148-6.149c0-3.398-2.754-6.15-6.148-6.15h4.561     c3.799,0,6.881-3.079,6.881-6.876c0-2.998-1.92-5.54-4.596-6.481h1.42c3.943,0,7.141-3.196,7.141-7.142     c0-3.345-2.303-6.145-5.408-6.919h0.646C176.152,124.127,179.666,120.612,179.666,116.279z" fill="#FFCA10"/></g></g></g></svg>