<?xml version="1.0" encoding="utf-8"?>
<svg enable-background="new 0 0 64 64" height="64px" version="1.1" viewBox="0 0 64 64" width="64px" xmlns="http://www.w3.org/2000/svg">
  <g id="Layer_1">
    <g>
      <circle cx="32" cy="32" fill="#77B3D4" r="32"/>
    </g>
    <g opacity="0.2">
      <path d="M52,32c0-9.941-8.954-18-20-18s-20,8.059-20,18c0,9.569,8.303,17.372,18.775,17.944    C31.463,53.597,32,56,32,56s5.045-3.044,9.639-8.23C47.814,44.706,52,38.795,52,32z" fill="#231F20"/>
    </g>
    <g>
      <path d="M49,28.8C49,43.763,32,54,32,54s-9.389-42,0-42S49,19.522,49,28.8z" fill="#FFFFFF"/>
    </g>
    <g>
      <ellipse cx="32" cy="30" fill="#FFFFFF" rx="20" ry="18"/>
    </g>
    <g>
      <circle cx="32" cy="30" fill="#4F5D73" r="2"/>
    </g>
    <g>
      <circle cx="40" cy="30" fill="#4F5D73" r="2"/>
    </g>
    <g>
      <circle cx="24" cy="30" fill="#4F5D73" r="2"/>
    </g>
  </g>
  <g id="Layer_2"/>
  <g transform="matrix(0.425851, 0, 0, 0.434013, 18.372766, 16.326532)">
    <title>Layer 1</title>
    <circle id="svg_2" r="32" cy="32" cx="32" style="fill: rgb(102, 149, 176);"/>
    <path opacity="0.2" id="svg_4" fill="#231F20" d="m49.899,46.243l-14.142,-14.143c-1.031,-1.031 -2.481,-1.367 -3.799,-1.037l-8.093,-7.993l-3.037,-5.898l-5.911,-3.044l-2.867,2.867l3.044,5.911l5.911,3.044l0.008,-0.008l8.066,7.966c-0.351,1.331 -0.021,2.805 1.022,3.849l14.142,14.142c1.562,1.562 4.095,1.562 5.657,0c1.562,-1.562 1.562,-4.094 -0.001,-5.656z"/>
    <polygon id="svg_6" points="34.499,37.263 18.397,21.359 21.331,18.567 37.433,34.471   " fill="#4F5D73"/>
    <path id="svg_8" fill="#F5CF87" d="m49.899,49.899c-1.562,1.562 -4.095,1.562 -5.657,0l-14.141,-14.142c-1.562,-1.562 -1.562,-4.095 0,-5.657l0,0c1.562,-1.562 4.095,-1.562 5.657,0l14.142,14.142c1.562,1.563 1.562,4.095 -0.001,5.657l0,0z"/>
    <path opacity="0.2" id="svg_10" fill="#231F20" d="m53.304,18.353l-6.476,6.476c-1.562,1.562 -4.095,1.562 -5.657,0c-1.562,-1.562 -1.562,-4.095 0,-5.657l6.476,-6.476c-1.131,-0.444 -2.358,-0.696 -3.647,-0.696c-5.523,0 -10,4.477 -10,10c0,1.289 0.252,2.516 0.696,3.647l-11.049,11.049c-1.131,-0.444 -2.358,-0.696 -3.647,-0.696c-5.523,0 -10,4.477 -10,10c0,1.289 0.252,2.516 0.696,3.647l6.476,-6.476c1.562,-1.562 4.095,-1.562 5.657,0c1.562,1.562 1.562,4.095 0,5.657l-6.476,6.476c1.131,0.444 2.358,0.696 3.647,0.696c5.523,0 10,-4.477 10,-10c0,-1.289 -0.252,-2.516 -0.696,-3.647l11.049,-11.049c1.131,0.444 2.358,0.696 3.647,0.696c5.523,0 10,-4.477 10,-10c0,-1.289 -0.252,-2.516 -0.696,-3.647z"/>
    <rect id="svg_12" y="28" x="23.43" width="17.14" transform="matrix(0.7071,-0.7071,0.7071,0.7071,-13.2548,32) " height="8" fill="#FFFFFF"/>
    <polygon id="svg_14" points="21.005,23.95 15.094,20.906 12.05,14.995 14.917,12.128 20.828,15.172 23.872,21.083   " fill="#4F5D73"/>
    <path id="svg_17" fill="#FFFFFF" d="m46.828,22.828c-1.562,1.562 -4.095,1.562 -5.657,0c-1.562,-1.562 -1.562,-4.095 0,-5.657l6.476,-6.476c-1.131,-0.443 -2.358,-0.695 -3.647,-0.695c-5.523,0 -10,4.477 -10,10c0,5.523 4.477,10 10,10s10,-4.477 10,-10c0,-1.289 -0.252,-2.516 -0.696,-3.647l-6.476,6.475z"/>
    <path id="svg_20" fill="#FFFFFF" d="m17.172,41.172c1.562,-1.562 4.095,-1.562 5.657,0c1.562,1.562 1.562,4.095 0,5.657l-6.476,6.476c1.131,0.443 2.358,0.695 3.647,0.695c5.523,0 10,-4.477 10,-10c0,-5.523 -4.477,-10 -10,-10s-10,4.477 -10,10c0,1.289 0.252,2.516 0.696,3.647l6.476,-6.475z"/>
  </g>
</svg>