<svg width="300" height="300" xmlns="http://www.w3.org/2000/svg">

 <g>
  <title>background</title>
  <rect fill="none" id="canvas_background" height="402" width="582" y="-1" x="-1"/>
 </g>
 <g>
  <title>Layer 1</title>
  <path id="svg_2" fill="#44B39B" d="m150.52,15.398c-74.562,0 -135.001,60.442 -135.001,135.001c0,74.555 60.439,135.003 135.001,135.003c74.557,0 135.001,-60.448 135.001,-135.003c0,-74.559 -60.445,-135.001 -135.001,-135.001zm0,250.914c-64.018,0 -115.913,-51.897 -115.913,-115.913s51.895,-115.909 115.913,-115.909c64.013,0 115.91,51.894 115.91,115.909s-51.898,115.913 -115.91,115.913z"/>
  <path id="svg_3" fill="#44B39B" d="m254.947,150.401c0,57.672 -46.756,104.424 -104.428,104.424c-57.677,0 -104.43,-46.752 -104.43,-104.424c0,-57.676 46.753,-104.432 104.43,-104.432c57.672,0 104.428,46.756 104.428,104.432z"/>
  <polygon id="svg_4" points="196.328,220.879 150.523,196.796 104.72,220.871 113.465,169.872 76.405,133.759 127.623,126.317    150.52,79.918 173.424,126.317 224.631,133.759 187.573,169.872  " fill="#FFFFFF"/>
 </g>
 <g transform="translate(200, 35) rotate(0)">
  <title>Layer 1</title>
  <path id="svg_5" fill="#B0E0D4" d="m50.732,63.175c0,-0.964 -0.092,-1.901 -0.229,-2.827l6.811,-3.934l-7.062,-12.228l-7.08,3.931c-1.465,-1.173 -3.172,-2.125 -5.172,-2.83l0,-6.287l-15,0l0,6.287c-1,0.678 -2.58,1.589 -4.006,2.697l-6.405,-4.009l-7.017,12.149l6.853,4.006c-0.155,0.991 -0.219,2.008 -0.219,3.045c0,0.965 0.113,1.905 0.249,2.831l-6.797,3.933l7.067,12.222l6.094,-3.929c1.469,1.17 3.181,2.124 4.181,2.83l0,7.938l15,0l0,-7.938c2,-0.674 3.573,-1.587 4.996,-2.699l6.9,4.006l7.269,-12.146l-6.732,-4.004c0.156,-0.993 0.299,-2.006 0.299,-3.044zm-19.238,8.576c-4.738,0 -8.584,-3.838 -8.584,-8.576c0,-4.736 3.846,-8.578 8.584,-8.578c4.735,0 8.578,3.842 8.578,8.578c0,4.738 -3.843,8.576 -8.578,8.576z"/>
  <path id="svg_6" fill="#454B53" d="m38.397,90.5l-15,0c-1.381,0 -2.5,-1.119 -2.5,-2.5l0,-5.559c-0.076,-0.045 -0.153,-0.091 -0.231,-0.138c-0.529,-0.314 -1.131,-0.672 -1.738,-1.068l-4.877,3.045c-0.575,0.36 -1.272,0.469 -1.929,0.306c-0.657,-0.164 -1.221,-0.588 -1.56,-1.175l-7.065,-12.222c-0.691,-1.195 -0.282,-2.724 0.912,-3.415l5.376,-3.108c-0.04,-0.475 -0.066,-0.977 -0.066,-1.491c0,-0.575 0.021,-1.147 0.063,-1.712l-5.425,-3.183c-1.188,-0.696 -1.589,-2.223 -0.896,-3.413l7.066,-12.148c0.339,-0.583 0.899,-1.004 1.553,-1.168c0.656,-0.164 1.347,-0.057 1.92,0.297l5.104,3.146c0.59,-0.382 1.169,-0.727 1.681,-1.031c0.038,-0.022 0.075,-0.045 0.112,-0.066l0,-5.897c0,-1.381 1.119,-2.5 2.5,-2.5l15,0c1.381,0 2.5,1.119 2.5,2.5l0,5.609c0.908,0.424 1.777,0.924 2.653,1.526l5.461,-3.12c1.197,-0.683 2.718,-0.271 3.405,0.921l7.062,12.228c0.69,1.195 0.281,2.725 -0.915,3.415l-5.391,3.113c0.04,0.512 0.06,1.004 0.06,1.482c0,0.557 -0.027,1.121 -0.086,1.732l5.342,3.165c0.571,0.338 0.984,0.89 1.148,1.532c0.164,0.644 0.065,1.325 -0.273,1.896l-7.219,12.146c-0.704,1.184 -2.232,1.574 -3.418,0.877l-5.38,-3.169c-0.724,0.493 -1.524,0.971 -2.449,1.399l0,5.248c0,1.381 -1.119,2.5 -2.5,2.5zm-12.5,-5l10,0l0,-4.438c0,-1.073 0.685,-2.026 1.702,-2.369c1.63,-0.549 2.76,-1.287 4.055,-2.3c0.812,-0.634 1.926,-0.705 2.809,-0.185l4.655,2.742l4.668,-7.853l-4.604,-2.729c-0.882,-0.521 -1.355,-1.529 -1.195,-2.541c0.17,-1.073 0.246,-1.892 0.246,-2.653c0,-0.75 -0.064,-1.531 -0.202,-2.459c-0.151,-1.016 0.334,-2.02 1.223,-2.533l4.646,-2.683l-4.567,-7.908l-4.72,2.696c-0.892,0.509 -2.001,0.421 -2.802,-0.219c-1.454,-1.164 -2.724,-1.889 -4.243,-2.425c-1,-0.353 -1.669,-1.297 -1.669,-2.357l0,-4.786l-10,0l0,4.787c0,0.829 -0.411,1.604 -1.098,2.069c-0.395,0.268 -0.899,0.57 -1.458,0.902c-0.856,0.51 -1.826,1.087 -2.615,1.7c-0.824,0.639 -1.96,0.7 -2.846,0.153l-4.321,-2.663l-4.524,7.779l4.68,2.745c0.887,0.52 1.364,1.528 1.205,2.543c-0.134,0.853 -0.201,1.747 -0.201,2.658c0,0.873 0.109,1.737 0.217,2.469c0.148,1.013 -0.336,2.014 -1.222,2.526l-4.638,2.682l4.521,7.818l4.098,-2.559c0.899,-0.563 2.053,-0.495 2.883,0.165c0.778,0.621 1.77,1.21 2.644,1.729c0.597,0.354 1.159,0.689 1.617,1.013c0.664,0.468 1.06,1.23 1.06,2.043l0,4.441l-0.004,0zm5.597,-11.249c-6.111,0 -11.084,-4.969 -11.084,-11.076c0,-6.108 4.973,-11.078 11.084,-11.078c6.108,0 11.078,4.97 11.078,11.078c0,6.107 -4.969,11.076 -11.078,11.076zm0,-17.154c-3.354,0 -6.084,2.727 -6.084,6.078c0,3.351 2.729,6.076 6.084,6.076c3.352,0 6.078,-2.726 6.078,-6.076c0,-3.352 -2.726,-6.078 -6.078,-6.078z"/>
  <path id="svg_8" fill="#E0F1F8" d="m78.884,22.881c0,-0.734 -0.072,-1.444 -0.177,-2.149l5.172,-2.985l-5.361,-9.287l-5.484,2.98c-1.116,-0.886 -3.034,-1.611 -4.034,-2.145l0,-5.295l-10,0l0,5.295c-2,0.512 -2.551,1.203 -3.633,2.048l-5.165,-3.043l-5.479,9.223l5.129,3.042c-0.114,0.76 -0.201,1.528 -0.201,2.316c0,0.733 0.069,1.446 0.179,2.146l-5.182,2.988l5.361,9.291l5.22,-2.985c1.125,0.889 1.771,1.614 3.771,2.145l0,7.534l10,0l0,-7.534c1,-0.514 2.824,-1.202 3.896,-2.048l5.3,3.044l5.544,-9.227l-5.102,-3.043c0.129,-0.757 0.246,-1.521 0.246,-2.311zm-14.617,6.521c-3.596,0 -6.521,-2.924 -6.521,-6.521c0,-3.6 2.925,-6.519 6.521,-6.519c3.597,0 6.517,2.919 6.517,6.519c-0.001,3.598 -2.921,6.521 -6.517,6.521z"/>
  <path id="svg_9" fill="#454B53" d="m69.397,45.5l-10,0c-1.381,0 -2.5,-1.119 -2.5,-2.5l0,-4.761c-0.663,-0.293 -1.204,-0.613 -1.686,-0.944l-3.993,2.201c-1.193,0.659 -2.692,0.24 -3.372,-0.94l-5.36,-9.291c-0.332,-0.574 -0.422,-1.257 -0.249,-1.897c0.172,-0.641 0.591,-1.187 1.166,-1.518l3.78,-2.18c-0.013,-0.263 -0.02,-0.525 -0.02,-0.789c0,-0.341 0.015,-0.674 0.039,-1l-3.71,-2.211c-0.57,-0.34 -0.981,-0.894 -1.145,-1.537c-0.162,-0.644 -0.061,-1.326 0.28,-1.896l5.528,-9.223c0.702,-1.173 2.214,-1.563 3.396,-0.879l3.828,2.213c0.432,-0.293 0.919,-0.577 1.517,-0.84l0,-4.508c0,-1.381 1.119,-2.5 2.5,-2.5l10,0c1.381,0 2.5,1.119 2.5,2.5l0,4.75c0.461,0.229 0.953,0.482 1.438,0.763l3.955,-2.23c1.193,-0.674 2.706,-0.261 3.393,0.928l5.361,9.286c0.332,0.574 0.422,1.257 0.25,1.897s-0.591,1.187 -1.165,1.518l-3.768,2.175c0.016,0.271 0.022,0.534 0.022,0.795c0,0.324 -0.013,0.653 -0.038,0.997l3.721,2.208c0.57,0.338 0.983,0.89 1.146,1.533c0.164,0.644 0.064,1.325 -0.274,1.896l-5.494,9.227c-0.703,1.181 -2.228,1.572 -3.411,0.878l-3.866,-2.263c-0.428,0.243 -0.858,0.465 -1.27,0.668l0,4.974c0.001,1.381 -1.118,2.5 -2.499,2.5zm-7.5,-5l5,0l0,-4.034c0,-0.938 0.524,-1.796 1.357,-2.224c0.247,-0.127 0.53,-0.265 0.833,-0.411c0.824,-0.398 1.849,-0.895 2.461,-1.377c0.806,-0.638 1.923,-0.713 2.81,-0.193l3.059,1.79l2.944,-4.943l-2.975,-1.766c-0.889,-0.527 -1.36,-1.547 -1.188,-2.565c0.128,-0.762 0.186,-1.346 0.186,-1.896c0,-0.527 -0.048,-1.094 -0.149,-1.783c-0.15,-1.015 0.334,-2.019 1.223,-2.531l3.007,-1.735l-2.874,-4.978l-3.13,1.765c-0.884,0.498 -1.985,0.412 -2.783,-0.221c-0.611,-0.486 -1.643,-0.993 -2.471,-1.399c-0.365,-0.18 -0.702,-0.347 -0.986,-0.498c-0.814,-0.435 -1.322,-1.282 -1.322,-2.205l0,-3.796l-5,0l0,3.795c0,1.142 -0.773,2.139 -1.88,2.422c-1.316,0.337 -1.784,0.706 -2.633,1.376l-0.281,0.221c-0.804,0.627 -1.908,0.704 -2.789,0.193l-3.134,-1.812l-2.975,4.963l2.951,1.759c0.872,0.52 1.343,1.516 1.192,2.52c-0.111,0.738 -0.186,1.352 -0.186,1.944c0,0.573 0.047,1.149 0.142,1.761c0.16,1.021 -0.325,2.035 -1.222,2.552l-3.018,1.739l2.886,5.001l3.27,-1.802c0.881,-0.485 1.967,-0.396 2.757,0.228l0.171,0.136c0.963,0.763 1.494,1.184 2.89,1.555c1.096,0.291 1.858,1.282 1.858,2.416l0,4.033l-0.001,0zm2.37,-8.598c-4.974,0 -9.021,-4.047 -9.021,-9.021c0,-4.973 4.047,-9.019 9.021,-9.019c4.972,0 9.017,4.046 9.017,9.019c-0.001,4.974 -4.046,9.021 -9.017,9.021zm0,-13.04c-2.217,0 -4.021,1.803 -4.021,4.019c0,2.218 1.804,4.021 4.021,4.021c2.215,0 4.017,-1.804 4.017,-4.021c-0.001,-2.216 -1.803,-4.019 -4.017,-4.019z"/>
 </g>
</svg>