<?xml version="1.0" encoding="utf-8"?>
<svg enable-background="new 0 0 64 64" height="64px" version="1.1" viewBox="0 0 64 64" width="64px" xmlns="http://www.w3.org/2000/svg">
  <g id="Layer_1">
    <g>
      <circle cx="32" cy="32" fill="#77B3D4" r="32"/>
    </g>
    <g transform="matrix(1, 0, 0, 1, 13.670757, -4.005442)">
      <g transform="matrix(0.355646, 0, 0, 0.390476, 14.107662, 8.614603)">
        <g opacity="0.2" transform="matrix(1, 0, 0, 1, 4.353741, -2.438095)">
          <path d="M52,32c0-9.941-8.954-18-20-18s-20,8.059-20,18c0,9.569,8.303,17.372,18.775,17.944    C31.463,53.597,32,56,32,56s5.045-3.044,9.639-8.23C47.814,44.706,52,38.795,52,32z" fill="#231F20"/>
        </g>
        <g transform="matrix(1, 0, 0, 1, 4.353741, -2.438095)">
          <path d="M49,28.8C49,43.763,32,54,32,54s-9.389-42,0-42S49,19.522,49,28.8z" fill="#FFFFFF"/>
        </g>
        <g transform="matrix(1, 0, 0, 1, 4.353741, -2.438095)">
          <ellipse cx="32" cy="30" fill="#FFFFFF" rx="20" ry="18"/>
        </g>
        <g transform="matrix(1, 0, 0, 1, 4.353741, -2.438095)">
          <circle cx="32" cy="30" fill="#4F5D73" r="2"/>
        </g>
        <g transform="matrix(1, 0, 0, 1, 4.353741, -2.438095)">
          <circle cx="40" cy="30" fill="#4F5D73" r="2"/>
        </g>
        <g transform="matrix(1, 0, 0, 1, 4.353741, -2.438095)">
          <circle cx="24" cy="30" fill="#4F5D73" r="2"/>
        </g>
      </g>
    </g>
    <g transform="matrix(1.063942, 0, 0, 1, -1.027075, 0.683155)">
      <g opacity="0.2" transform="matrix(0.690801, 0, 0, 0.710917, 8.936543, 15.809259)">
        <g>
          <path d="M43.905,47.543c-3.821-1.66-5.217-4.242-5.643-6.469c2.752-2.215,4.943-5.756,6.148-9.573     c1.239-1.579,1.96-3.226,1.96-4.62c0-0.955-0.347-1.646-0.955-2.158c-0.203-8.106-5.942-14.613-13.039-14.714     C32.322,10.009,32.268,10,32.213,10c-0.022,0-0.043,0.004-0.065,0.004c-7.052,0.039-12.783,6.41-13.125,14.409     c-0.884,0.528-1.394,1.305-1.394,2.469c0,1.641,0.992,3.63,2.663,5.448c1.187,3.327,3.118,6.38,5.5,8.438     c-0.354,2.292-1.699,5.039-5.697,6.776c-2.159,0.938-6.105,1.781-7.808,2.649c4.362,4.769,12.624,7.769,19.589,7.805l0.099,0.003     C31.983,57.999,31.992,58,32,58c7.014,0,15.325-3.01,19.713-7.808C50.01,49.324,46.063,48.481,43.905,47.543z" fill="#231F20"/>
        </g>
      </g>
      <g transform="matrix(0.644421, 0, 0, 0.669195, 9.506413, 18.14576)">
        <g>
          <path d="M43.905,45.543c-3.821-1.66-5.217-4.242-5.643-6.469c2.752-2.215,4.943-5.756,6.148-9.573     c1.239-1.579,1.96-3.226,1.96-4.62c0-0.955-0.347-1.646-0.955-2.158C45.213,14.618,39.474,8.11,32.378,8.01     C32.322,8.009,32.268,8,32.213,8c-0.022,0-0.043,0.004-0.065,0.004c-7.052,0.039-12.783,6.41-13.125,14.409     c-0.884,0.528-1.394,1.305-1.394,2.469c0,1.641,0.992,3.63,2.663,5.448c1.187,3.327,3.118,6.38,5.5,8.438     c-0.354,2.292-1.699,5.039-5.697,6.776c-2.159,0.938-6.105,1.781-7.808,2.649c4.362,4.769,12.624,7.769,19.589,7.805l0.099,0.003     C31.983,55.999,31.992,56,32,56c7.014,0,15.325-3.01,19.713-7.808C50.01,47.324,46.063,46.481,43.905,45.543z" fill="#FFFFFF"/>
        </g>
      </g>
    </g>
  </g>
  <g id="Layer_2"/>
</svg>