<?xml version="1.0" ?><svg baseProfile="tiny" id="Layer_1" version="1.2" viewBox="0 0 512 512" xml:space="preserve" xmlns="http://www.w3.org/2000/svg" xmlns:xlink="http://www.w3.org/1999/xlink"><g id="XMLID_785_"><rect fill="#8ABE4F" height="19.1" id="XMLID_17_" width="227.1" x="120.3" y="158.9"/><rect fill="#8ABE4F" height="19.1" id="XMLID_16_" width="227.1" x="120.3" y="189.9"/><rect fill="#8ABE4F" height="19.1" id="XMLID_15_" width="227.1" x="120.3" y="220.9"/><rect fill="#8ABE4F" height="19.1" id="XMLID_14_" width="227.1" x="120.3" y="252"/><rect fill="#8ABE4F" height="19.1" id="XMLID_13_" width="176.5" x="120.3" y="283"/><path d="M456.1,75.4L397.6,7.6c-1.8-1.8-4.9-1.8-6.7,0l-58.5,67.8c-2.6,2.6-0.6,6.7,3.3,6.7h27.4   v53.2h62.1V82.1h27.4C456.7,82.1,458.7,78,456.1,75.4z" fill="#8ABE4F" id="XMLID_12_"/><rect fill="#8ABE4F" height="24.2" id="XMLID_11_" width="62.1" x="363.2" y="144.9"/><path d="M363.2,187.5c0,2.2,2,4,4.5,4h53.1c2.5,0,4.5-1.8,4.5-4v-8.9h-62.1V187.5z" fill="#8ABE4F" id="XMLID_10_"/><path d="M386.7,464.5c0,15.8-12.8,28.6-28.6,28.6H109.5c-15.8,0-28.6-12.8-28.6-28.6v-8.8H67.7v13.5   c0,20.5,16.6,37,37,37h258.1c20.5,0,37-16.6,37-37V200.7h-13.2V464.5z" fill="#8ABE4F" id="XMLID_9_"/><path d="M80.9,110.5c0-15.8,12.8-28.6,28.6-28.6h213.2c-1.4-4.4-0.3-9.3,3-12.7l0.4-0.4H104.8   c-20.5,0-37,16.6-37,37v227.5h13.2V110.5z" fill="#8ABE4F" id="XMLID_8_"/><path d="M345.4,394.5L345.4,394.5c0-28.7-23.3-52.1-52.1-52.1H54.7v104.1h238.7   C322.1,446.6,345.4,423.3,345.4,394.5z M158.6,396.9c-4.1,3.7-9.7,5.5-16.9,5.5h-14.1V427h-10.8v-65h24.9c7.2,0,12.8,1.9,16.9,5.6   c4.1,3.7,6.1,8.6,6.1,14.6C164.7,388.3,162.6,393.2,158.6,396.9z M227.1,399.5c0,8.1-2.6,14.7-7.7,19.9c-5.2,5.1-11.9,7.7-20.1,7.7   h-21.5v-65h21.5c8.2,0,14.9,2.6,20.1,7.7c5.2,5.1,7.7,11.8,7.7,19.9V399.5z M283.4,370.7h-30.8v19.9h26.2v8.7h-26.2V427h-10.8v-65   h41.6V370.7z" fill="#8ABE4F" id="XMLID_788_"/><path d="M199.2,370.7h-10.6v47.6h10.6c5.2,0,9.3-1.8,12.4-5.3c3.1-3.5,4.6-8.1,4.6-13.6v-10   c0-5.5-1.5-10-4.6-13.5C208.6,372.5,204.4,370.7,199.2,370.7z" fill="#8ABE4F" id="XMLID_4_"/><path d="M141.7,370.7h-14.1v22.9h14.1c4,0,7-1.1,9.1-3.2c2-2.1,3-4.9,3-8.2s-1-6.1-3-8.3   C148.7,371.8,145.7,370.7,141.7,370.7z" fill="#8ABE4F" id="XMLID_758_"/></g></svg>