<?xml version="1.0" encoding="utf-8"?>
<svg height="60px" version="1.1" viewBox="0 0 60 60" width="60px" xmlns="http://www.w3.org/2000/svg">
  <title/>
  <desc/>
  <g fill="none" fill-rule="evenodd" id="Page-1" stroke="none" stroke-width="1">
    <g id="Social_icons" transform="translate(-922.000000, -1955.000000)">
      <g id="Cloud" transform="translate(922.000000, 1955.000000)">
        <path d="M0,30 C0,13.4314567 13.4314567,0 30,0 C46.5685433,0 60,13.4314567 60,30 C60,46.5685433 46.5685433,60 30,60 C13.4314567,60 0,46.5685433 0,30 Z" fill="#1899E2" id="back"/>
      </g>
    </g>
  </g>
  <g transform="matrix(1, 0, 0, 1, -2, -1.979592)">
    <g opacity="0.2">
      <g>
        <path d="M48,32c0-8.837-7.163-16-16-16c-7.498,0-13.773,5.165-15.508,12.126C11.687,28.854,8,32.991,8,38     c0,5.523,4.477,10,10,10h8c1.105,0,2-0.895,2-2v-5.5c0-0.828-0.672-1.5-1.5-1.5h-3.061c-1.471,0-1.883-1.01-0.914-2.245     l7.713-9.829c0.969-1.235,2.555-1.235,3.524,0l7.713,9.829C42.444,37.99,42.033,39,40.561,39H37.5c-0.828,0-1.5,0.672-1.5,1.5V46     c0,1.105,0.895,2,2,2h10c4.418,0,8-3.582,8-8S52.418,32,48,32z" fill="#231F20"/>
      </g>
    </g>
    <g>
      <g>
        <path d="M48,30c0-8.837-7.163-16-16-16c-7.498,0-13.773,5.165-15.508,12.126C11.687,26.854,8,30.991,8,36     c0,5.523,4.477,10,10,10h8c1.105,0,2-0.895,2-2v-5.5c0-0.828-0.672-1.5-1.5-1.5h-3.061c-1.471,0-1.883-1.01-0.914-2.245     l7.713-9.829c0.969-1.235,2.555-1.235,3.524,0l7.713,9.829C42.444,35.99,42.033,37,40.561,37H37.5c-0.828,0-1.5,0.672-1.5,1.5V44     c0,1.105,0.895,2,2,2h10c4.418,0,8-3.582,8-8S52.418,30,48,30z" fill="#FFFFFF"/>
      </g>
    </g>
  </g>
</svg>