<?xml version="1.0" ?><svg enable-background="new 0 0 64 64" height="64px" version="1.1" viewBox="0 0 64 64" width="64px" xml:space="preserve" xmlns="http://www.w3.org/2000/svg" xmlns:xlink="http://www.w3.org/1999/xlink"><g id="Layer_1"><g><circle cx="32" cy="32" fill="#E0995E" r="32"/></g><g opacity="0.2"><g><path d="M44,48c0,2.209-1.791,4-4,4H24c-2.209,0-4-1.791-4-4V16c0-2.209,1.791-4,4-4h16c2.209,0,4,1.791,4,4V48z" fill="#231F20"/></g></g><g><g><path d="M24,48.5c-1.379,0-2.5-1.121-2.5-2.5V14c0-1.379,1.121-2.5,2.5-2.5h16c1.379,0,2.5,1.121,2.5,2.5v32     c0,1.379-1.121,2.5-2.5,2.5H24z" fill="#4F5D73"/></g><g><path d="M40,13c0.551,0,1,0.449,1,1v32c0,0.551-0.449,1-1,1H24c-0.551,0-1-0.449-1-1V14c0-0.551,0.449-1,1-1H40      M40,10H24c-2.209,0-4,1.791-4,4v32c0,2.209,1.791,4,4,4h16c2.209,0,4-1.791,4-4V14C44,11.791,42.209,10,40,10L40,10z" fill="#FFFFFF"/></g></g><g opacity="0.2"><polygon fill="#FFFFFF" points="26.25,11.5 42.001,49.62 42.001,11.5   "/></g><g><polygon fill="#FFFFFF" points="40,50 24,50 20,42 44,42   "/></g><g><circle cx="32" cy="46" fill="#E0E0D1" r="2"/></g></g><g id="Layer_2"/></svg>