<svg width="300" height="300" xmlns="http://www.w3.org/2000/svg">

 <g>
  <title>background</title>
  <rect fill="none" id="canvas_background" height="402" width="582" y="-1" x="-1"/>
 </g>
 <g>
  <title>Layer 1</title>
  <path id="svg_2" fill="#44B39B" d="m150.52,15.398c-74.562,0 -135.001,60.442 -135.001,135.001c0,74.555 60.439,135.003 135.001,135.003c74.557,0 135.001,-60.448 135.001,-135.003c0,-74.559 -60.445,-135.001 -135.001,-135.001zm0,250.914c-64.018,0 -115.913,-51.897 -115.913,-115.913s51.895,-115.909 115.913,-115.909c64.013,0 115.91,51.894 115.91,115.909s-51.898,115.913 -115.91,115.913z"/>
  <path id="svg_3" fill="#44B39B" d="m254.947,150.401c0,57.672 -46.756,104.424 -104.428,104.424c-57.677,0 -104.43,-46.752 -104.43,-104.424c0,-57.676 46.753,-104.432 104.43,-104.432c57.672,0 104.428,46.756 104.428,104.432z"/>
  <polygon id="svg_4" points="196.328,220.879 150.523,196.796 104.72,220.871 113.465,169.872 76.405,133.759 127.623,126.317    150.52,79.918 173.424,126.317 224.631,133.759 187.573,169.872  " fill="#FFFFFF"/>
 </g>
</svg>