<?xml version="1.0" encoding="utf-8"?>
<svg viewBox="0 0 64 64" width="64" height="64" xmlns="http://www.w3.org/2000/svg">
  <circle cx="32" cy="32" fill="#F5CF87" r="32"/>
  <g>
    <g opacity="0.2">
      <path d="M23.439,24c-1.471,0-1.883-1.088-0.914-2.418l7.713-10.585c0.969-1.33,2.555-1.33,3.524,0l7.713,10.585   C42.444,22.912,42.033,24,40.561,24H23.439z" fill="#231F20"/>
    </g>
    <path d="M 23.439 22 C 21.968 22 21.556 20.912 22.525 19.582 L 30.238 8.997 C 31.207 7.667 32.793 7.667 33.762 8.997 L 41.475 19.582 C 42.444 20.912 42.033 22 40.561 22 L 23.439 22 Z" fill="#4F5D73"/>
  </g>
  <g>
    <path d="M 23.454 54.328 C 21.983 54.328 21.571 53.24 22.54 51.91 L 30.253 41.324 C 31.222 39.994 32.808 39.994 33.777 41.324 L 41.49 51.91 C 42.459 53.24 42.048 54.328 40.576 54.328 L 23.454 54.328 Z" fill="#231F20" opacity="0.2" transform="matrix(-0.999984, 0.005667, -0.005667, -0.999984, 64.297946, 94.472309)"/>
    <path d="M 23.465 56.328 C 21.994 56.328 21.582 55.239 22.551 53.909 L 30.264 43.324 C 31.233 41.994 32.819 41.994 33.788 43.324 L 41.501 53.909 C 42.47 55.239 42.059 56.328 40.587 56.328 L 23.465 56.328 Z" fill="#4F5D73" transform="matrix(-0.999984, 0.005667, -0.005667, -0.999984, 64.331277, 98.472215)"/>
  </g>
  <g transform="matrix(1, 0, 0, 1, 0, 1)">
    <path d="M 34.154 36.414 C 34.154 36.741 34.047 37.004 33.834 37.204 C 33.621 37.411 33.364 37.541 33.064 37.594 C 32.731 37.674 32.351 37.744 31.924 37.804 C 31.497 37.864 31.064 37.917 30.624 37.964 C 30.177 38.011 29.741 38.044 29.314 38.064 C 28.894 38.084 28.511 38.094 28.164 38.094 C 28.071 38.094 27.944 38.094 27.784 38.094 C 27.617 38.087 27.447 38.074 27.274 38.054 C 27.101 38.041 26.941 38.017 26.794 37.984 C 26.641 37.951 26.524 37.904 26.444 37.844 C 26.364 37.777 26.294 37.687 26.234 37.574 C 26.174 37.454 26.121 37.324 26.074 37.184 C 26.034 37.044 26.001 36.907 25.974 36.774 C 25.954 36.641 25.944 36.521 25.944 36.414 C 25.944 36.261 25.964 36.121 26.004 35.994 C 26.044 35.861 26.117 35.741 26.224 35.634 C 26.364 35.487 26.504 35.344 26.644 35.204 C 26.791 35.064 26.931 34.927 27.064 34.794 C 27.224 34.621 27.431 34.397 27.684 34.124 C 27.944 33.851 28.224 33.544 28.524 33.204 C 28.817 32.864 29.114 32.504 29.414 32.124 C 29.707 31.751 29.977 31.384 30.224 31.024 C 30.471 30.671 30.671 30.337 30.824 30.024 C 30.971 29.704 31.044 29.434 31.044 29.214 C 31.044 29.001 30.984 28.824 30.864 28.684 C 30.737 28.544 30.571 28.474 30.364 28.474 C 30.124 28.474 29.904 28.557 29.704 28.724 C 29.504 28.891 29.304 29.074 29.104 29.274 C 28.897 29.467 28.681 29.647 28.454 29.814 C 28.221 29.987 27.961 30.074 27.674 30.074 C 27.327 30.074 27.054 29.971 26.854 29.764 C 26.661 29.564 26.564 29.297 26.564 28.964 C 26.564 28.471 26.674 28.014 26.894 27.594 C 27.107 27.174 27.394 26.811 27.754 26.504 C 28.114 26.204 28.517 25.967 28.964 25.794 C 29.411 25.621 29.871 25.534 30.344 25.534 C 30.824 25.534 31.271 25.591 31.684 25.704 C 32.097 25.817 32.457 25.991 32.764 26.224 C 33.064 26.457 33.301 26.757 33.474 27.124 C 33.647 27.484 33.734 27.924 33.734 28.444 C 33.734 28.844 33.664 29.264 33.524 29.704 C 33.384 30.151 33.201 30.597 32.974 31.044 C 32.741 31.491 32.477 31.937 32.184 32.384 C 31.884 32.824 31.577 33.244 31.264 33.644 C 30.951 34.051 30.637 34.427 30.324 34.774 C 30.011 35.121 29.727 35.424 29.474 35.684 C 30.021 35.611 30.597 35.541 31.204 35.474 C 31.804 35.407 32.384 35.374 32.944 35.374 C 33.271 35.374 33.554 35.461 33.794 35.634 C 34.034 35.807 34.154 36.067 34.154 36.414 Z" transform="matrix(1.0137189626693726, -0.01298500131815672, 0.09534400701522827, 1.0247670412063599, -2.8899388313293457, -1.4745570421218872)" style="fill: rgb(35, 31, 32); white-space: pre; opacity: 0.2;"/>
    <path d="M 35.239 30.858 C 35.239 31.185 35.132 31.448 34.919 31.648 C 34.706 31.855 34.446 31.985 34.139 32.038 C 33.806 32.118 33.426 32.188 32.999 32.248 C 32.572 32.308 32.136 32.361 31.689 32.408 C 31.249 32.455 30.816 32.488 30.389 32.508 C 29.962 32.528 29.576 32.538 29.229 32.538 C 29.136 32.538 29.009 32.538 28.849 32.538 C 28.689 32.531 28.522 32.518 28.349 32.498 C 28.176 32.485 28.012 32.461 27.859 32.428 C 27.706 32.395 27.589 32.348 27.509 32.288 C 27.436 32.221 27.366 32.128 27.299 32.008 C 27.239 31.895 27.186 31.768 27.139 31.628 C 27.099 31.488 27.066 31.351 27.039 31.218 C 27.019 31.078 27.009 30.958 27.009 30.858 C 27.009 30.705 27.029 30.561 27.069 30.428 C 27.109 30.301 27.182 30.181 27.289 30.068 C 27.429 29.921 27.569 29.778 27.709 29.638 C 27.856 29.498 27.999 29.361 28.139 29.228 C 28.292 29.061 28.499 28.841 28.759 28.568 C 29.019 28.288 29.296 27.978 29.589 27.638 C 29.889 27.298 30.186 26.938 30.479 26.558 C 30.779 26.185 31.052 25.818 31.299 25.458 C 31.546 25.098 31.746 24.761 31.899 24.448 C 32.046 24.135 32.119 23.865 32.119 23.638 C 32.119 23.425 32.059 23.248 31.939 23.108 C 31.812 22.968 31.642 22.898 31.429 22.898 C 31.196 22.898 30.979 22.985 30.779 23.158 C 30.572 23.325 30.369 23.505 30.169 23.698 C 29.969 23.898 29.752 24.081 29.519 24.248 C 29.292 24.415 29.032 24.498 28.739 24.498 C 28.392 24.498 28.122 24.398 27.929 24.198 C 27.729 23.998 27.629 23.728 27.629 23.388 C 27.629 22.895 27.739 22.438 27.959 22.018 C 28.179 21.598 28.469 21.235 28.829 20.928 C 29.182 20.628 29.586 20.391 30.039 20.218 C 30.486 20.045 30.946 19.958 31.419 19.958 C 31.899 19.958 32.346 20.015 32.759 20.128 C 33.179 20.241 33.539 20.415 33.839 20.648 C 34.139 20.881 34.376 21.181 34.549 21.548 C 34.729 21.915 34.819 22.355 34.819 22.868 C 34.819 23.275 34.749 23.698 34.609 24.138 C 34.462 24.578 34.276 25.025 34.049 25.478 C 33.822 25.925 33.559 26.371 33.259 26.818 C 32.959 27.258 32.652 27.681 32.339 28.088 C 32.026 28.488 31.712 28.861 31.399 29.208 C 31.086 29.555 30.799 29.858 30.539 30.118 C 31.092 30.051 31.669 29.985 32.269 29.918 C 32.876 29.851 33.459 29.818 34.019 29.818 C 34.346 29.818 34.629 29.905 34.869 30.078 C 35.116 30.251 35.239 30.511 35.239 30.858 Z" transform="matrix(1.003303050994873, 0.03414200246334076, 0.053957004100084305, 0.9985440373420715, -0.897350013256073, 3.8033859729766846)" style="fill: rgb(79, 93, 115); line-height: 16.1681px; stroke-dasharray: 4px; stroke-linecap: round; stroke-linejoin: round; white-space: pre;"/>
  </g>
</svg>